<svg xmlns="http://www.w3.org/2000/svg" xmlns:xlink="http://www.w3.org/1999/xlink" width="500" zoomAndPan="magnify" viewBox="0 0 375 374.999991" height="500" preserveAspectRatio="xMidYMid meet" version="1.0"><defs><g/><clipPath id="c5957e3528"><path d="M 0.800781 0 L 223 0 L 223 375 L 0.800781 375 Z M 0.800781 0 " clip-rule="nonzero"/></clipPath><clipPath id="f1c632e807"><rect x="0" width="223" y="0" height="375"/></clipPath><clipPath id="42a60e2c8d"><path d="M 82.898438 54 L 188.601562 54 L 188.601562 138.351562 L 82.898438 138.351562 Z M 82.898438 54 " clip-rule="nonzero"/></clipPath><clipPath id="c8f1f0ef18"><path d="M 114 29.445312 L 150 29.445312 L 150 84 L 114 84 Z M 114 29.445312 " clip-rule="nonzero"/></clipPath><clipPath id="60fb00cf46"><rect x="0" width="267" y="0" height="375"/></clipPath></defs><g transform="matrix(1, 0, 0, 1, 58, 0)"><g clip-path="url(#60fb00cf46)"><g clip-path="url(#c5957e3528)"><g transform="matrix(1, 0, 0, 1, -0.000000000000007105, 0)"><g clip-path="url(#f1c632e807)"><g fill="#000000" fill-opacity="1"><g transform="translate(23.060063, 313.925191)"><g><path d="M 191.515625 -165.65625 C 193.265625 -165.65625 194.140625 -164.78125 194.140625 -163.03125 C 194.140625 -161.863281 193.191406 -160.546875 191.296875 -159.078125 C 189.398438 -157.617188 185.96875 -156.160156 181 -154.703125 C 173.695312 -151.773438 165.003906 -147.097656 154.921875 -140.671875 C 144.835938 -134.242188 133.660156 -126.941406 121.390625 -118.765625 C 109.703125 -110.878906 96.847656 -101.96875 82.828125 -92.03125 C 68.804688 -82.09375 56.242188 -72.304688 45.140625 -62.671875 C 36.671875 -55.367188 28.125 -47.332031 19.5 -38.5625 C 10.882812 -29.800781 3.21875 -20.015625 -3.5 -9.203125 C -6.132812 -5.109375 -7.960938 -1.820312 -8.984375 0.65625 C -10.003906 3.132812 -11.242188 4.375 -12.703125 4.375 C -13.878906 4.375 -14.757812 3.71875 -15.34375 2.40625 C -15.925781 1.09375 -15.925781 -1.460938 -15.34375 -5.265625 C -13 -18.410156 -7.375 -30.972656 1.53125 -42.953125 C 10.445312 -54.929688 19.578125 -65.15625 28.921875 -73.625 C 39.148438 -82.976562 50.765625 -91.960938 63.765625 -100.578125 C 76.765625 -109.191406 89.984375 -117.15625 103.421875 -124.46875 C 110.734375 -128.550781 120.007812 -133.148438 131.25 -138.265625 C 142.5 -143.378906 152.507812 -147.691406 161.28125 -151.203125 C 158.0625 -150.910156 154.914062 -150.6875 151.84375 -150.53125 C 148.78125 -150.382812 146.082031 -150.3125 143.75 -150.3125 C 139.945312 -150.3125 134.613281 -150.53125 127.75 -150.96875 C 120.882812 -151.414062 114.238281 -151.859375 107.8125 -152.296875 C 101.382812 -152.734375 96.5625 -152.953125 93.34375 -152.953125 C 89.257812 -152.953125 84.441406 -151.707031 78.890625 -149.21875 C 73.335938 -146.738281 64.570312 -139.945312 52.59375 -128.84375 C 50.832031 -127.09375 49.222656 -126.800781 47.765625 -127.96875 C 47.472656 -128.550781 47.617188 -129.351562 48.203125 -130.375 C 48.785156 -131.394531 49.222656 -132.050781 49.515625 -132.34375 C 60.328125 -144.914062 69.019531 -153.828125 75.59375 -159.078125 C 82.164062 -164.335938 87.789062 -167.476562 92.46875 -168.5 C 97.144531 -169.53125 101.820312 -170.046875 106.5 -170.046875 C 113.21875 -170.046875 121.539062 -169.238281 131.46875 -167.625 C 141.40625 -166.019531 151.046875 -164.34375 160.390625 -162.59375 C 169.742188 -160.84375 176.613281 -159.96875 181 -159.96875 C 182.457031 -161.132812 184.0625 -162.375 185.8125 -163.6875 C 187.570312 -165 189.472656 -165.65625 191.515625 -165.65625 Z M 191.515625 -165.65625 "/></g></g></g></g></g></g><g clip-path="url(#42a60e2c8d)"><path fill="#000000" d="M 82.957031 66.960938 C 82.894531 62.761719 83.511719 58.554688 84.8125 54.5625 C 92.464844 73.585938 109.054688 88.792969 128.675781 94.785156 C 145.011719 99.769531 150 97.667969 159.707031 101.574219 C 168.78125 105.222656 180.078125 114.234375 188.601562 138.332031 C 183.972656 128.449219 178.242188 123.054688 173.914062 119.96875 C 164.054688 112.941406 156.65625 114.4375 123.328125 107 C 112.394531 104.558594 107.351562 102.804688 101.375 99.175781 C 94.058594 94.734375 88.308594 87.769531 85.328125 79.75 C 83.8125 75.660156 83.019531 71.316406 82.957031 66.960938 Z M 82.957031 66.960938 " fill-opacity="1" fill-rule="nonzero"/></g><path fill="#000000" d="M 104.734375 68.898438 C 107.328125 73.042969 110.492188 76.285156 111.855469 77.578125 C 117.421875 82.847656 123.445312 85.742188 129.335938 88.570312 C 139.617188 93.511719 148.621094 94.746094 154.503906 95.011719 C 149.8125 93.019531 143.722656 89.972656 136.96875 85.269531 C 124.847656 76.824219 117.496094 68.109375 115.449219 65.574219 C 106.863281 54.921875 102.101562 44.328125 99.410156 36.578125 C 98.507812 42.09375 96.933594 56.417969 104.734375 68.898438 Z M 104.734375 68.898438 " fill-opacity="1" fill-rule="nonzero"/><g clip-path="url(#c8f1f0ef18)"><path fill="#000000" d="M 116.886719 53.789062 C 119.972656 62.445312 125.816406 67.511719 131.472656 72.421875 C 136.886719 77.113281 142.882812 80.878906 149.460938 83.722656 C 143.105469 78.609375 133.390625 69.414062 125.898438 55.164062 C 121.640625 47.046875 118.679688 38.480469 117.023438 29.464844 C 115.542969 33.964844 113.210938 43.480469 116.886719 53.789062 Z M 116.886719 53.789062 " fill-opacity="1" fill-rule="nonzero"/></g><g fill="#000000" fill-opacity="1"><g transform="translate(216.561905, 208.612625)"><g><path d="M 8.71875 -80.859375 C 8.71875 -84.984375 9.773438 -88.789062 11.890625 -92.28125 C 14.003906 -95.769531 16.804688 -98.546875 20.296875 -100.609375 C 23.785156 -102.671875 27.484375 -103.703125 31.390625 -103.703125 C 36.460938 -103.703125 40.664062 -101.90625 44 -98.3125 C 47.332031 -94.71875 49 -90.328125 49 -85.140625 C 49 -81.023438 47.941406 -77.222656 45.828125 -73.734375 C 43.710938 -70.242188 40.910156 -67.46875 37.421875 -65.40625 C 33.929688 -63.34375 30.234375 -62.3125 26.328125 -62.3125 C 21.242188 -62.3125 17.035156 -64.109375 13.703125 -67.703125 C 10.378906 -71.296875 8.71875 -75.679688 8.71875 -80.859375 Z M 17.765625 -81.65625 C 17.765625 -78.695312 18.710938 -76.238281 20.609375 -74.28125 C 22.515625 -72.332031 24.894531 -71.359375 27.75 -71.359375 C 31.132812 -71.359375 34.015625 -72.625 36.390625 -75.15625 C 38.765625 -77.695312 39.953125 -80.765625 39.953125 -84.359375 C 39.953125 -87.210938 38.972656 -89.640625 37.015625 -91.640625 C 35.066406 -93.648438 32.664062 -94.65625 29.8125 -94.65625 C 26.53125 -94.65625 23.703125 -93.382812 21.328125 -90.84375 C 18.953125 -88.3125 17.765625 -85.25 17.765625 -81.65625 Z M 17.765625 -81.65625 "/></g></g></g></g></g></svg>